<svg width="50" height="50" viewBox="0 0 50 50" fill="none" xmlns="http://www.w3.org/2000/svg">
    <rect width="50" height="50" rx="15" fill="#F0B62A" />
    <path fill-rule="evenodd" clip-rule="evenodd"
        d="M28.7305 31.8682C28.1868 32.0863 27.596 32.1953 26.958 32.1953C26.0465 32.1953 25.2311 31.9756 24.5117 31.5361C23.7923 31.0967 23.2275 30.4945 22.8174 29.7295C22.4072 28.9645 22.2021 28.0938 22.2021 27.1172C22.2021 26.1406 22.4072 25.2699 22.8174 24.5049C23.2275 23.7399 23.7923 23.1377 24.5117 22.6982C25.2311 22.2588 26.0465 22.0391 26.958 22.0391C27.57 22.0391 28.1396 22.1416 28.667 22.3467C29.1943 22.5518 29.6631 22.8366 30.0732 23.2012V17.3516H32.8857V32H30.2295L30.1611 30.9453C29.751 31.3424 29.2741 31.6501 28.7305 31.8682ZM16.2744 32.1953C16.9515 32.1953 17.6595 32.0846 18.3984 31.8633C19.1374 31.6419 19.8844 31.235 20.6396 30.6426L18.9404 28.6113C18.5758 28.9564 18.1706 29.238 17.7246 29.4561C17.2786 29.6742 16.7171 29.7832 16.04 29.7832C15.4085 29.7832 14.8568 29.6139 14.3848 29.2754C13.9128 28.9368 13.5889 28.4974 13.4131 27.957H21.0303V27.1074C21.0303 26.1243 20.8089 25.252 20.3662 24.4902C19.9235 23.7285 19.3197 23.1296 18.5547 22.6934C17.7897 22.2572 16.9157 22.0391 15.9326 22.0391C14.943 22.0391 14.0592 22.2588 13.2812 22.6982C12.5033 23.1377 11.8896 23.7367 11.4404 24.4951C10.9912 25.2536 10.7666 26.1178 10.7666 27.0879C10.7666 28.071 11.001 28.9482 11.4697 29.7197C11.9385 30.4912 12.5863 31.0967 13.4131 31.5361C14.2399 31.9756 15.1937 32.1953 16.2744 32.1953ZM18.1396 26.3945H13.3545C13.4912 25.8346 13.7793 25.3757 14.2188 25.0176C14.6582 24.6595 15.1774 24.4805 15.7764 24.4805C16.3688 24.4805 16.8766 24.6562 17.2998 25.0078C17.723 25.3594 18.0029 25.8216 18.1396 26.3945ZM27.5928 29.7539C26.8766 29.7539 26.2842 29.5033 25.8154 29.002C25.3467 28.5007 25.1123 27.8724 25.1123 27.1172C25.1123 26.362 25.3467 25.7337 25.8154 25.2324C26.2842 24.7311 26.8766 24.4805 27.5928 24.4805C28.3089 24.4805 28.9014 24.7311 29.3701 25.2324C29.8389 25.7337 30.0732 26.362 30.0732 27.1172C30.0732 27.8724 29.8389 28.5007 29.3701 29.002C28.9014 29.5033 28.3089 29.7539 27.5928 29.7539ZM38.1201 31.7656C37.8337 32.0521 37.4561 32.1953 36.9873 32.1953C36.5186 32.1953 36.141 32.0521 35.8545 31.7656C35.568 31.4792 35.4248 31.1016 35.4248 30.6328C35.4248 30.1641 35.568 29.7865 35.8545 29.5C36.141 29.2135 36.5186 29.0703 36.9873 29.0703C37.4561 29.0703 37.8337 29.2135 38.1201 29.5C38.4066 29.7865 38.5498 30.1641 38.5498 30.6328C38.5498 31.1016 38.4066 31.4792 38.1201 31.7656Z"
        fill="white" />
</svg>