<svg width="50" height="50" viewBox="0 0 50 50" fill="none" xmlns="http://www.w3.org/2000/svg">
    <rect width="50" height="50" rx="15" fill="#222121" />
    <path fill-rule="evenodd" clip-rule="evenodd"
        d="M12.7617 19.208V22.8896H12V16H12.7617V18.5488C13.3086 17.9694 13.8848 17.6797 14.4902 17.6797C15.444 17.6797 15.9209 18.2559 15.9209 19.4082V22.8896H15.1592V19.6279C15.1592 19.1755 15.0868 18.8475 14.9419 18.644C14.797 18.4406 14.57 18.3389 14.2607 18.3389C13.7952 18.3389 13.2956 18.6286 12.7617 19.208ZM21.1992 22.0693C20.7663 22.7041 20.1771 23.0215 19.4316 23.0215C19.054 23.0215 18.7212 22.8872 18.4331 22.6187C18.145 22.3501 18.001 22.0042 18.001 21.5811C18.001 21.3304 18.0514 21.109 18.1523 20.917C18.2533 20.7249 18.4014 20.563 18.5967 20.4312C18.792 20.2993 19.0296 20.1951 19.3096 20.1187C19.5895 20.0422 19.9215 19.9893 20.3057 19.96L21.1602 19.8916V19.6475C21.1602 18.7751 20.7533 18.3389 19.9395 18.3389C19.7474 18.3389 19.5041 18.3804 19.2095 18.4634C18.9149 18.5464 18.6618 18.6449 18.4502 18.7588L18.25 18.2119C18.9434 17.8571 19.5879 17.6797 20.1836 17.6797C21.3424 17.6797 21.9219 18.2933 21.9219 19.5205V21.708C21.9219 22.1507 21.9642 22.5446 22.0488 22.8896H21.292C21.2301 22.6846 21.1992 22.4111 21.1992 22.0693ZM19.6514 22.2891C19.404 22.2891 19.2005 22.2191 19.041 22.0791C18.8815 21.9391 18.8018 21.7552 18.8018 21.5273C18.8018 21.2767 18.8953 21.0781 19.0825 20.9316C19.2697 20.7852 19.491 20.6851 19.7466 20.6313C20.0021 20.5776 20.4733 20.5199 21.1602 20.458V21.3809C20.9583 21.6641 20.724 21.8862 20.457 22.0474C20.1901 22.2085 19.9215 22.2891 19.6514 22.2891ZM25.3008 19.5986V22.8896H24.5439V17.8018H25.3008V18.832C25.7077 18.0638 26.235 17.6797 26.8828 17.6797C27.2669 17.6797 27.6396 17.766 28.001 17.9385L27.6934 18.6709C27.3581 18.5244 27.0684 18.4512 26.8242 18.4512C26.5996 18.4512 26.3799 18.5155 26.165 18.644C25.9502 18.7726 25.7524 18.9565 25.5718 19.1958C25.3911 19.4351 25.3008 19.5693 25.3008 19.5986ZM31.5508 23.0215C31.873 23.0215 32.1798 22.9401 32.4712 22.7773C32.7625 22.6146 32.9863 22.4079 33.1426 22.1572V22.8896H33.9043V16H33.1426V18.4609C32.752 17.9401 32.236 17.6797 31.5947 17.6797C31.012 17.6797 30.5441 17.9246 30.1909 18.4146C29.8377 18.9045 29.6611 19.5221 29.6611 20.2676C29.6611 21.0651 29.8304 21.7235 30.1689 22.2427C30.5075 22.7619 30.9681 23.0215 31.5508 23.0215ZM30.8062 21.7642C31.0356 22.1466 31.3506 22.3379 31.751 22.3379C31.943 22.3379 32.1367 22.2858 32.332 22.1816C32.5273 22.0775 32.7113 21.9212 32.8838 21.7129C33.0563 21.5046 33.1426 21.3776 33.1426 21.332V19.2178C32.778 18.6318 32.3385 18.3389 31.8242 18.3389C31.4043 18.3389 31.0723 18.5252 30.8281 18.8979C30.584 19.2707 30.4619 19.7419 30.4619 20.3115C30.4619 20.8975 30.5767 21.3817 30.8062 21.7642ZM13.6895 33.0215C14.3177 33.0215 14.8353 32.8807 15.2422 32.5991C15.6491 32.3175 15.8525 31.9342 15.8525 31.4492C15.8525 31.2018 15.7996 30.9845 15.6938 30.7974C15.5881 30.6102 15.4294 30.4507 15.2178 30.3188C15.0062 30.187 14.7327 30.0739 14.3975 29.9795L13.6699 29.7695C13.3379 29.6751 13.1165 29.5734 13.0059 29.4644C12.8952 29.3553 12.8398 29.2275 12.8398 29.0811C12.8398 28.8499 12.9603 28.6652 13.2012 28.5269C13.4421 28.3885 13.7692 28.3193 14.1826 28.3193C14.5602 28.3193 14.9622 28.3893 15.3887 28.5293L15.5596 27.8896C15.0583 27.7497 14.6025 27.6797 14.1924 27.6797C13.5576 27.6797 13.0482 27.8083 12.6641 28.0654C12.2799 28.3226 12.0879 28.6709 12.0879 29.1104C12.0879 29.3122 12.1294 29.4945 12.2124 29.6572C12.2954 29.82 12.4167 29.96 12.5762 30.0771C12.7357 30.1943 12.9082 30.283 13.0938 30.3433C13.2793 30.4035 13.569 30.4938 13.9629 30.6143C14.4512 30.764 14.7612 30.908 14.8931 31.0464C15.0249 31.1847 15.0908 31.3418 15.0908 31.5176C15.0908 31.778 14.9582 31.9871 14.6929 32.145C14.4276 32.3029 14.0833 32.3818 13.6602 32.3818C13.1719 32.3818 12.7145 32.2809 12.2881 32.0791L12.1416 32.7383C12.5485 32.9271 13.0645 33.0215 13.6895 33.0215ZM21.6191 32.2842C21.2057 32.7757 20.6491 33.0215 19.9492 33.0215C19.2461 33.0215 18.6886 32.7765 18.2769 32.2866C17.8651 31.7967 17.6592 31.1481 17.6592 30.3408C17.6592 29.54 17.8659 28.8963 18.2793 28.4097C18.6927 27.923 19.2493 27.6797 19.9492 27.6797C20.6491 27.6797 21.2057 27.9238 21.6191 28.4121C22.0326 28.9004 22.2393 29.5433 22.2393 30.3408C22.2393 31.1449 22.0326 31.7926 21.6191 32.2842ZM19.9492 32.3574C19.4837 32.3574 19.1191 32.1646 18.8555 31.7788C18.5918 31.3931 18.46 30.917 18.46 30.3506C18.46 29.7549 18.5902 29.2707 18.8506 28.8979C19.111 28.5252 19.4772 28.3389 19.9492 28.3389C20.418 28.3389 20.7842 28.5277 21.0479 28.9053C21.3115 29.2829 21.4434 29.7646 21.4434 30.3506C21.4434 30.9072 21.3099 31.3809 21.043 31.7715C20.776 32.1621 20.4115 32.3574 19.9492 32.3574ZM26.082 28.4609V32.8896H25.3203V28.4609H24.041V27.8018H25.3203V27.6309C25.3203 26.9831 25.431 26.529 25.6523 26.2686C25.8737 26.0081 26.2562 25.8779 26.7998 25.8779C27.1514 25.8779 27.542 25.9447 27.9717 26.0781L27.7715 26.6982C27.4102 26.5941 27.0863 26.542 26.7998 26.542C26.5264 26.542 26.3384 26.6193 26.2358 26.7739C26.1333 26.9285 26.082 27.2402 26.082 27.709V27.8018H27.791V28.4609H26.082ZM32.4639 33.0117C32.9587 33.0117 33.4616 32.8945 33.9727 32.6602L33.8408 32.0693C33.4339 32.2549 33.0221 32.3477 32.6055 32.3477C32.3711 32.3477 32.1855 32.2622 32.0488 32.0913C31.9121 31.9204 31.8438 31.6803 31.8438 31.3711V28.4609H33.5723V27.8018H31.8438V26.4102H31.1016V27.8018H30.125V28.4609H31.1016V31.5713C31.1016 32.5316 31.5557 33.0117 32.4639 33.0117ZM38.355 32.8335C38.2362 32.9588 38.0921 33.0215 37.9229 33.0215C37.7568 33.0215 37.6152 32.9588 37.498 32.8335C37.3809 32.7082 37.3223 32.5576 37.3223 32.3818C37.3223 32.2061 37.38 32.0604 37.4956 31.9448C37.6112 31.8293 37.7536 31.7715 37.9229 31.7715C38.0954 31.7715 38.2402 31.8301 38.3574 31.9473C38.4746 32.0645 38.5332 32.2093 38.5332 32.3818C38.5332 32.5576 38.4738 32.7082 38.355 32.8335Z"
        fill="white" />
</svg>