<svg width="50" height="50" viewBox="0 0 50 50" fill="none" xmlns="http://www.w3.org/2000/svg">
    <rect width="50" height="50" rx="15" fill="#FF585F" />
    <path fill-rule="evenodd" clip-rule="evenodd"
        d="M30.6911 32.6099V28.4603L34.3302 26.3852C34.7734 26.7628 35.1171 27.2329 35.3382 27.7562C35.3911 27.7497 35.4434 27.7405 35.4956 27.7312L35.4957 27.7312C35.5897 27.7146 35.6836 27.6979 35.7809 27.6979C36.1808 27.6979 36.5698 27.7836 36.947 27.9084C36.7125 26.9955 36.2163 26.1657 35.5275 25.5C36.2163 24.8342 36.7124 24.0045 36.9469 23.0916C36.5693 23.2164 36.1804 23.302 35.7802 23.302C35.6833 23.302 35.5897 23.2854 35.496 23.2688L35.496 23.2688C35.4437 23.2595 35.3913 23.2503 35.3382 23.2438C35.117 23.767 34.7734 24.2372 34.3302 24.6147L30.6911 22.5397V18.3901C31.2379 18.2015 31.8155 18.1412 32.3792 18.21C32.5892 17.7212 32.8952 17.2703 33.3105 16.905C32.4005 16.656 31.4348 16.6686 30.5157 16.9224C29.9455 14.7029 27.9219 13 25.5 13C23.0782 13 21.0546 14.7029 20.4843 16.9223C19.5651 16.6684 18.5993 16.656 17.6892 16.9052C18.1048 17.2707 18.4108 17.7213 18.6209 18.21C19.1845 18.1412 19.7618 18.2017 20.3089 18.3902V22.5397L16.6736 24.6126C16.2383 24.2339 15.9068 23.7614 15.6857 23.2407C15.6321 23.2475 15.5792 23.2569 15.5262 23.2662L15.5262 23.2662L15.5262 23.2662L15.5262 23.2662L15.5262 23.2663L15.5261 23.2663L15.5261 23.2663L15.5261 23.2663L15.5261 23.2663L15.5261 23.2663C15.4251 23.2841 15.3243 23.302 15.2198 23.302C14.8176 23.302 14.4267 23.2153 14.0475 23.0891C14.2817 24.0034 14.7804 24.8339 15.4712 25.5C14.7804 26.1661 14.2818 26.9963 14.0476 27.9104C14.4271 27.7841 14.818 27.6973 15.2198 27.6973C15.3243 27.6973 15.4253 27.7151 15.5263 27.733C15.5793 27.7424 15.6324 27.7518 15.686 27.7586C15.9072 27.2381 16.2386 26.7659 16.6736 26.3874L20.3089 28.4603V32.6097C19.7617 32.7983 19.1844 32.8588 18.6208 32.7899C18.4125 33.2747 18.1092 33.7213 17.6989 34.0848C18.1501 34.2077 18.6112 34.289 19.0784 34.289C19.5522 34.289 20.0262 34.2205 20.4886 34.0914C21.0639 36.3038 23.0832 38 25.5 38C27.9168 38 29.936 36.3038 30.5114 34.0915C30.9738 34.2205 31.4477 34.2891 31.9216 34.2891C32.3888 34.2891 32.8503 34.2075 33.3017 34.0846C32.8913 33.7209 32.5877 33.2745 32.3792 32.7899C31.8155 32.8588 31.2379 32.7985 30.6911 32.6099ZM29.2079 31.843L26.9834 30.5745L29.2079 29.306V31.843ZM21.792 27.6143L25.5 29.7286L29.2079 27.6143V23.3857L25.5 21.2714L21.792 23.3857V27.6143ZM32.9158 25.5L30.6911 26.7685V24.2315L32.9158 25.5ZM29.2079 19.157L26.9834 20.4255L29.2079 21.694V19.157ZM25.5 14.4648C27.3117 14.4648 28.8182 15.8056 29.1391 17.5045L25.5 19.5796L21.8609 17.5045C22.1818 15.8056 23.6883 14.4648 25.5 14.4648ZM24.0166 20.4255L21.792 19.157V21.694L24.0166 20.4255ZM18.0842 25.5L20.3089 24.2315V26.7685L18.0842 25.5ZM21.792 31.843L24.0166 30.5745L21.792 29.306V31.843ZM25.5 36.5352C23.6883 36.5352 22.1818 35.1944 21.8609 33.4955L25.5 31.4204L29.1391 33.4955C28.8182 35.1944 27.3117 36.5352 25.5 36.5352ZM35.7802 21.8372C36.1567 21.8372 36.5392 21.7427 36.8882 21.5439C37.9499 20.9381 38.3156 19.5919 37.7029 18.542C37.0888 17.4934 35.7258 17.1315 34.6641 17.7374H34.6634C33.6017 18.3432 33.236 19.6893 33.8487 20.7393C34.2607 21.4431 35.0096 21.8372 35.7802 21.8372ZM15.2198 21.8372C14.8432 21.8372 14.4616 21.7427 14.1125 21.5439C13.0501 20.9381 12.6844 19.592 13.297 18.5427C13.9112 17.4941 15.2741 17.1322 16.3358 17.7373H16.3366C17.3982 18.3431 17.764 19.6893 17.1513 20.7385C16.7392 21.4431 15.9896 21.8372 15.2198 21.8372ZM36.8875 29.4561H36.8882C37.9499 30.0619 38.3156 31.408 37.7029 32.4573C37.2908 33.1619 36.5412 33.556 35.7714 33.556C35.3948 33.556 35.0132 33.4615 34.6641 33.2627C33.6017 32.6569 33.236 31.3107 33.8487 30.2615C34.4628 29.2129 35.8258 28.851 36.8875 29.4561ZM14.1118 29.4561H14.1125C15.1735 28.8502 16.5372 29.2122 17.1513 30.2607C17.764 31.3107 17.3983 32.6568 16.3366 33.2626C15.9875 33.4615 15.6051 33.5559 15.2285 33.5559C14.458 33.5559 13.7091 33.1618 13.2971 32.458C12.6844 31.408 13.0501 30.0619 14.1118 29.4561ZM27.7248 25.5C27.7248 26.7135 26.7287 27.6973 25.5 27.6973C24.2713 27.6973 23.2752 26.7135 23.2752 25.5C23.2752 24.2865 24.2713 23.3027 25.5 23.3027C26.7287 23.3027 27.7248 24.2865 27.7248 25.5Z"
        fill="white" />
</svg>