<svg width="50" height="50" viewBox="0 0 50 50" fill="none" xmlns="http://www.w3.org/2000/svg">
    <rect width="50" height="50" rx="15" fill="#492A29" />
    <path fill-rule="evenodd" clip-rule="evenodd"
        d="M19.0296 24.811C19.0296 24.9194 18.9535 24.9736 18.8013 24.9736C18.6719 24.9736 18.5235 24.962 18.3561 24.9387C18.1886 24.9155 18.0098 24.9039 17.8195 24.9039C17.6216 24.9039 17.4447 24.9155 17.2886 24.9387C17.1326 24.962 17.0013 24.9736 16.8948 24.9736C16.7578 24.9736 16.6893 24.9117 16.6893 24.7878C16.6893 24.6794 16.7273 24.6252 16.8034 24.6252C16.8871 24.6252 16.9899 24.602 17.1117 24.5556C17.2182 24.5168 17.2829 24.4646 17.3058 24.3988C17.3286 24.333 17.34 24.242 17.34 24.1259V18.0877C17.34 17.987 17.3153 17.9135 17.2658 17.867C17.2163 17.8206 17.1592 17.7857 17.0945 17.7625C17.0299 17.7393 16.9728 17.7161 16.9233 17.6928C16.8738 17.6696 16.8491 17.6348 16.8491 17.5883C16.8491 17.5032 16.9005 17.4471 17.0032 17.42C17.106 17.3929 17.2258 17.3522 17.3628 17.298C17.6292 17.1974 17.8252 17.1026 17.9508 17.0135C18.0764 16.9245 18.1582 16.88 18.1962 16.88C18.2571 16.88 18.2952 16.8994 18.3104 16.9381C18.3256 16.9768 18.3332 17.031 18.3332 17.1006C18.3332 17.2013 18.3275 17.3174 18.3161 17.449C18.3047 17.5806 18.299 17.7277 18.299 17.8903V24.0562C18.299 24.3117 18.3713 24.4743 18.5159 24.5439C18.5768 24.5749 18.6377 24.5923 18.6986 24.5962C18.7595 24.6001 18.8146 24.6059 18.8641 24.6136C18.9136 24.6214 18.9535 24.6388 18.984 24.6659C19.0144 24.693 19.0296 24.7413 19.0296 24.811ZM13.3442 25.1594C13.5573 25.1594 13.7514 25.0994 13.9265 24.9794C14.1015 24.8594 14.288 24.7142 14.4859 24.5439L14.7256 24.3349H14.7941C14.8778 24.5981 14.9844 24.7955 15.1138 24.9271C15.2432 25.0587 15.4068 25.1245 15.6047 25.1245C15.696 25.1245 15.7969 25.0936 15.9072 25.0316C16.0176 24.9697 16.1203 24.8962 16.2155 24.811C16.3106 24.7259 16.3924 24.6388 16.4609 24.5497C16.5294 24.4607 16.5637 24.3852 16.5637 24.3233C16.5637 24.2072 16.518 24.1491 16.4267 24.1491C16.3582 24.1491 16.2897 24.1878 16.2212 24.2653C16.1527 24.3427 16.0766 24.3814 15.9929 24.3814C15.8635 24.3814 15.7836 24.3194 15.7531 24.1956C15.7227 24.0717 15.7074 23.8859 15.7074 23.6382V20.9442C15.7074 20.7275 15.696 20.5359 15.6732 20.3694C15.6504 20.203 15.6009 20.0636 15.5248 19.9514C15.4487 19.8391 15.3364 19.754 15.188 19.6959C15.0396 19.6379 14.8436 19.6088 14.6 19.6088C14.3032 19.6088 14.0273 19.6611 13.7723 19.7656C13.5174 19.8701 13.2967 20.0017 13.1102 20.1604C12.9237 20.3191 12.7791 20.4952 12.6764 20.6887C12.5736 20.8823 12.5222 21.0642 12.5222 21.2345C12.5222 21.2964 12.5432 21.3468 12.585 21.3855C12.6269 21.4242 12.6783 21.4435 12.7392 21.4435C12.9675 21.4435 13.133 21.3758 13.2358 21.2403C13.3385 21.1048 13.4318 20.9403 13.5155 20.7468C13.622 20.4991 13.7324 20.3075 13.8466 20.172C13.9607 20.0365 14.1167 19.9688 14.3146 19.9688C14.5125 19.9688 14.6362 20.0423 14.6857 20.1894C14.7351 20.3365 14.7599 20.5726 14.7599 20.8978V21.7222C14.7599 21.8074 14.7542 21.8674 14.7428 21.9022C14.7313 21.937 14.6952 21.9699 14.6343 22.0009L14.3489 22.1519C14.0749 22.2912 13.8256 22.4306 13.6011 22.5699C13.3766 22.7092 13.1844 22.8583 13.0246 23.017C12.8647 23.1757 12.743 23.3518 12.6592 23.5453C12.5755 23.7388 12.5337 23.9633 12.5337 24.2188C12.5337 24.513 12.6079 24.7433 12.7563 24.9097C12.9047 25.0762 13.1007 25.1594 13.3442 25.1594ZM13.9836 24.4046C13.8542 24.4046 13.7495 24.3465 13.6696 24.2304C13.5897 24.1143 13.5497 23.944 13.5497 23.7195C13.5497 23.1776 13.7743 22.7905 14.2233 22.5583L14.6 22.3725C14.6533 22.3415 14.6914 22.326 14.7142 22.326C14.7523 22.326 14.7713 22.3725 14.7713 22.4654V23.3827C14.7713 23.5376 14.7466 23.6769 14.6971 23.8008C14.6476 23.9246 14.5848 24.0311 14.5087 24.1201C14.4326 24.2091 14.3489 24.2788 14.2576 24.3291C14.1662 24.3794 14.0749 24.4046 13.9836 24.4046ZM26.6444 24.9852C26.7814 24.9852 26.8499 24.9233 26.8499 24.7994C26.8499 24.7452 26.8366 24.7065 26.81 24.6833C26.7833 24.6601 26.7491 24.6426 26.7072 24.631C26.6654 24.6194 26.6159 24.6097 26.5588 24.602C26.5017 24.5943 26.4428 24.5749 26.3819 24.5439C26.3134 24.5052 26.2677 24.451 26.2449 24.3814C26.222 24.3117 26.2106 24.2072 26.2106 24.0678V21.3274C26.2106 20.8087 26.0888 20.3946 25.8453 20.0849C25.6017 19.7753 25.2859 19.6204 24.8977 19.6204C24.3345 19.6204 23.8664 19.9262 23.4935 20.5378H23.4364C23.2842 20.2668 23.1091 20.0462 22.9112 19.8759C22.7134 19.7056 22.4584 19.6204 22.1463 19.6204C21.9332 19.6204 21.7296 19.6746 21.5356 19.783C21.3415 19.8914 21.1721 20.0462 21.0275 20.2475L20.9134 20.3984C20.8753 20.4449 20.8487 20.4681 20.8334 20.4681C20.8106 20.4681 20.7992 20.4178 20.7992 20.3172V19.8295C20.7992 19.7598 20.7916 19.7017 20.7764 19.6553C20.7611 19.6088 20.7421 19.5856 20.7193 19.5856C20.6965 19.5856 20.666 19.603 20.628 19.6379C20.5899 19.6727 20.5423 19.7191 20.4852 19.7772C20.4282 19.8353 20.3559 19.903 20.2683 19.9804C20.1808 20.0578 20.0723 20.1352 19.943 20.2127C19.7907 20.2978 19.6595 20.3636 19.5491 20.4101C19.4387 20.4565 19.3836 20.5301 19.3836 20.6307C19.3836 20.7004 19.4102 20.7391 19.4635 20.7468C19.5167 20.7545 19.5738 20.7662 19.6347 20.7816C19.6956 20.7971 19.7527 20.8416 19.806 20.9152C19.8592 20.9887 19.8859 21.1261 19.8859 21.3274V24.0678C19.8859 24.2149 19.8745 24.3252 19.8516 24.3988C19.8288 24.4723 19.7755 24.5285 19.6918 24.5672C19.6461 24.5904 19.6024 24.6059 19.5605 24.6136C19.5186 24.6214 19.4825 24.6291 19.4521 24.6368C19.4216 24.6446 19.3969 24.6581 19.3778 24.6775C19.3588 24.6968 19.3493 24.7336 19.3493 24.7878C19.3493 24.9194 19.4102 24.9852 19.532 24.9852C19.6157 24.9852 19.726 24.9716 19.863 24.9446C20 24.9175 20.1675 24.9039 20.3654 24.9039C20.5556 24.9039 20.7269 24.9175 20.8791 24.9446C21.0313 24.9716 21.1645 24.9852 21.2787 24.9852C21.4157 24.9852 21.4842 24.9233 21.4842 24.7994C21.4842 24.7452 21.4709 24.7065 21.4442 24.6833C21.4176 24.6601 21.3833 24.6426 21.3415 24.631C21.2996 24.6194 21.2502 24.6097 21.1931 24.602C21.136 24.5943 21.077 24.5749 21.0161 24.5439C20.9476 24.5052 20.9019 24.451 20.8791 24.3814C20.8563 24.3117 20.8449 24.2072 20.8449 24.0678V21.5364C20.8449 21.1184 20.9248 20.8087 21.0846 20.6075C21.2444 20.4062 21.4576 20.3056 21.7239 20.3056C22.0588 20.3056 22.2852 20.4584 22.4032 20.7642C22.5212 21.07 22.5802 21.5248 22.5802 22.1286V23.3206C22.546 23.3412 22.5061 23.3677 22.4603 23.4002C22.3347 23.4892 22.1387 23.584 21.8723 23.6846C21.7354 23.7388 21.6155 23.7795 21.5127 23.8066C21.41 23.8337 21.3586 23.8898 21.3586 23.975C21.3586 24.0214 21.3833 24.0562 21.4328 24.0795C21.4823 24.1027 21.5394 24.1259 21.6041 24.1491C21.6688 24.1724 21.7258 24.2072 21.7753 24.2536C21.8248 24.3001 21.8495 24.3736 21.8495 24.4743V30.5125C21.8495 30.6286 21.8381 30.7196 21.8153 30.7854C21.7924 30.8512 21.7277 30.9035 21.6212 30.9422C21.4994 30.9886 21.3967 31.0118 21.3129 31.0118C21.2368 31.0118 21.1988 31.066 21.1988 31.1744C21.1988 31.2983 21.2673 31.3602 21.4043 31.3602C21.5108 31.3602 21.6421 31.3486 21.7981 31.3254C21.9542 31.3021 22.1311 31.2905 22.329 31.2905C22.5193 31.2905 22.6981 31.3021 22.8656 31.3254C23.033 31.3486 23.1814 31.3602 23.3108 31.3602C23.463 31.3602 23.5392 31.306 23.5392 31.1976C23.5392 31.128 23.5239 31.0796 23.4935 31.0525C23.463 31.0254 23.4231 31.008 23.3736 31.0002C23.3241 30.9925 23.269 30.9867 23.2081 30.9828C23.1472 30.9789 23.0863 30.9615 23.0254 30.9306C22.8808 30.8609 22.8085 30.6983 22.8085 30.4428V24.9115C22.8827 24.9064 22.9626 24.9039 23.0482 24.9039C23.2309 24.9039 23.4003 24.9175 23.5563 24.9446C23.7123 24.9716 23.8474 24.9852 23.9616 24.9852C24.0986 24.9852 24.1671 24.9233 24.1671 24.7994C24.1671 24.7452 24.1537 24.7065 24.1271 24.6833C24.1005 24.6601 24.0662 24.6426 24.0244 24.631C23.9825 24.6194 23.933 24.6097 23.8759 24.602C23.8189 24.5943 23.7599 24.5749 23.699 24.5439C23.6305 24.5052 23.5867 24.451 23.5677 24.3814C23.5487 24.3117 23.5392 24.2072 23.5392 24.0678V21.5364C23.5392 21.1184 23.6191 20.8087 23.7789 20.6075C23.9387 20.4062 24.148 20.3056 24.4068 20.3056C24.7493 20.3056 24.9757 20.4604 25.0861 20.77C25.1965 21.0797 25.2516 21.5326 25.2516 22.1286V23.2741C25.2068 23.2901 25.1364 23.3321 25.0404 23.4002C24.9148 23.4892 24.7189 23.584 24.4525 23.6846C24.3155 23.7388 24.1956 23.7795 24.0929 23.8066C23.9901 23.8337 23.9387 23.8898 23.9387 23.975C23.9387 24.0214 23.9635 24.0562 24.0129 24.0795C24.0624 24.1027 24.1195 24.1259 24.1842 24.1491C24.2489 24.1724 24.306 24.2072 24.3554 24.2536C24.4049 24.3001 24.4296 24.3736 24.4296 24.4743V30.5125C24.4296 30.6286 24.4182 30.7196 24.3954 30.7854C24.3726 30.8512 24.3079 30.9035 24.2013 30.9422C24.0795 30.9886 23.9768 31.0118 23.8931 31.0118C23.817 31.0118 23.7789 31.066 23.7789 31.1744C23.7789 31.2983 23.8474 31.3602 23.9844 31.3602C24.091 31.3602 24.2222 31.3486 24.3783 31.3254C24.5343 31.3021 24.7112 31.2905 24.9091 31.2905C25.0994 31.2905 25.2783 31.3021 25.4457 31.3254C25.6132 31.3486 25.7616 31.3602 25.891 31.3602C26.0432 31.3602 26.1193 31.306 26.1193 31.1976C26.1193 31.128 26.1041 31.0796 26.0736 31.0525C26.0432 31.0254 26.0032 31.008 25.9537 31.0002C25.9043 30.9925 25.8491 30.9867 25.7882 30.9828C25.7273 30.9789 25.6664 30.9615 25.6055 30.9306C25.4609 30.8609 25.3886 30.6983 25.3886 30.4428V24.9206C25.4903 24.9095 25.6045 24.9039 25.7311 24.9039C25.9214 24.9039 26.0926 24.9175 26.2449 24.9446C26.3971 24.9716 26.5303 24.9852 26.6444 24.9852ZM25.3886 24.9206V24.2769C25.3886 24.1143 25.3943 23.9672 25.4058 23.8356C25.4172 23.704 25.4229 23.5879 25.4229 23.4872C25.4229 23.4176 25.4153 23.3634 25.4 23.3247C25.3848 23.286 25.3468 23.2666 25.2859 23.2666C25.2769 23.2666 25.2655 23.2691 25.2516 23.2741V24.0678C25.2516 24.2149 25.2402 24.3252 25.2174 24.3988C25.1945 24.4723 25.1413 24.5285 25.0576 24.5672C25.0119 24.5904 24.9681 24.6059 24.9263 24.6136C24.8844 24.6214 24.8482 24.6291 24.8178 24.6368C24.7874 24.6446 24.7626 24.6581 24.7436 24.6775C24.7246 24.6968 24.7151 24.7336 24.7151 24.7878C24.7151 24.9194 24.7759 24.9852 24.8977 24.9852C24.9814 24.9852 25.0918 24.9716 25.2288 24.9446C25.2781 24.9348 25.3314 24.9268 25.3886 24.9206ZM22.8085 24.9115V24.2769C22.8085 24.1143 22.8142 23.9672 22.8256 23.8356C22.837 23.704 22.8428 23.5879 22.8428 23.4872C22.8428 23.4176 22.8351 23.3634 22.8199 23.3247C22.8047 23.286 22.7666 23.2666 22.7058 23.2666C22.6816 23.2666 22.6397 23.2846 22.5802 23.3206V24.0678C22.5802 24.2227 22.5669 24.333 22.5402 24.3988C22.5136 24.4646 22.4584 24.5207 22.3747 24.5672C22.329 24.5904 22.2871 24.6039 22.2491 24.6078C22.211 24.6117 22.1749 24.6175 22.1406 24.6252C22.1064 24.633 22.0797 24.6484 22.0607 24.6717C22.0417 24.6949 22.0322 24.7336 22.0322 24.7878C22.0322 24.9194 22.0931 24.9852 22.2148 24.9852C22.2986 24.9852 22.4089 24.9716 22.5459 24.9446C22.6236 24.9292 22.7112 24.9182 22.8085 24.9115ZM30.5717 24.962C30.2673 25.0936 29.9248 25.1594 29.5442 25.1594C29.2017 25.1594 28.8897 25.0916 28.6081 24.9562C28.3265 24.8207 28.0848 24.631 27.8831 24.3872C27.6814 24.1433 27.5254 23.8511 27.4151 23.5105C27.3047 23.1699 27.2495 22.7944 27.2495 22.3841C27.2495 21.9661 27.3066 21.5867 27.4208 21.2461C27.5349 20.9055 27.6986 20.6152 27.9117 20.3752C28.1248 20.1352 28.3797 19.9494 28.6766 19.8178C28.9734 19.6862 29.3045 19.6204 29.6698 19.6204C30.0199 19.6204 30.3396 19.6882 30.6288 19.8237C30.918 19.9591 31.1635 20.1488 31.3652 20.3926C31.5669 20.6365 31.7229 20.9287 31.8332 21.2693C31.9436 21.61 31.9988 21.9893 31.9988 22.4073C31.9988 22.8176 31.9417 23.1931 31.8275 23.5337C31.7134 23.8743 31.5516 24.1646 31.3423 24.4046C31.133 24.6446 30.8762 24.8304 30.5717 24.962ZM29.647 24.8342C29.236 24.8342 28.903 24.6039 28.648 24.1433C28.3931 23.6827 28.2656 23.0421 28.2656 22.2215C28.2656 21.4938 28.3836 20.9326 28.6195 20.5378C28.8554 20.143 29.1903 19.9456 29.6241 19.9456C30.0275 19.9456 30.3567 20.1759 30.6117 20.6365C30.8666 21.0971 30.9941 21.7377 30.9941 22.5583C30.9941 23.2782 30.8743 23.8375 30.6345 24.2362C30.3948 24.6349 30.0656 24.8342 29.647 24.8342ZM34.6417 25.0316C34.4248 25.1168 34.1869 25.1594 33.9282 25.1594C33.6694 25.1594 33.4373 25.1303 33.2318 25.0723C33.0263 25.0142 32.8702 24.9504 32.7637 24.8807C32.6952 24.842 32.6533 24.7917 32.6381 24.7297C32.6229 24.6678 32.6153 24.5826 32.6153 24.4743L32.6157 24.0533C32.6176 23.8025 32.6251 23.6158 32.6381 23.4931C32.6533 23.3498 32.7028 23.2782 32.7865 23.2782C32.8398 23.2782 32.8778 23.2976 32.9007 23.3363C32.9235 23.375 32.9444 23.4311 32.9635 23.5047C32.9825 23.5782 33.0053 23.6672 33.032 23.7717C33.0586 23.8762 33.1024 23.9943 33.1633 24.1259C33.3764 24.5981 33.6808 24.8342 34.0766 24.8342C34.3201 24.8342 34.5199 24.7491 34.6759 24.5788C34.832 24.4085 34.91 24.1801 34.91 23.8937C34.91 23.7466 34.8852 23.6169 34.8358 23.5047C34.7863 23.3924 34.714 23.2918 34.6189 23.2028C34.5237 23.1137 34.4077 23.0286 34.2707 22.9473C34.1337 22.866 33.9814 22.7789 33.814 22.686C33.6237 22.5854 33.4563 22.4867 33.3117 22.3899C33.1671 22.2931 33.0453 22.1886 32.9463 22.0764C32.8474 21.9641 32.7732 21.8364 32.7237 21.6932C32.6743 21.55 32.6495 21.3816 32.6495 21.1881C32.6495 20.7081 32.796 20.3268 33.0891 20.0443C33.3821 19.7617 33.7569 19.6204 34.2136 19.6204C34.6931 19.6204 35.0203 19.6669 35.1954 19.7598C35.3704 19.8527 35.458 19.9998 35.458 20.201C35.458 20.472 35.4466 20.6713 35.4237 20.7991C35.4009 20.9268 35.3514 20.9907 35.2753 20.9907C35.1916 20.9907 35.1421 20.9365 35.1269 20.8281C35.1117 20.7197 35.0584 20.5842 34.9671 20.4217C34.7768 20.0888 34.5256 19.9224 34.2136 19.9224C33.9929 19.9224 33.8159 19.9862 33.6827 20.114C33.5495 20.2417 33.4829 20.4062 33.4829 20.6075C33.4829 20.7391 33.5096 20.8494 33.5628 20.9384C33.6161 21.0274 33.6922 21.1107 33.7912 21.1881C33.8901 21.2655 34.01 21.341 34.1508 21.4145C34.2916 21.488 34.4495 21.5713 34.6246 21.6642C34.9975 21.8654 35.2715 22.0919 35.4466 22.3435C35.6216 22.5951 35.7091 22.9105 35.7091 23.2898C35.7091 23.584 35.6654 23.8472 35.5778 24.0795C35.4903 24.3117 35.3666 24.5072 35.2068 24.6659C35.047 24.8246 34.8586 24.9465 34.6417 25.0316ZM37.6499 25.1594C37.825 25.1594 37.9905 25.1265 38.1466 25.0607C38.3026 24.9949 38.4396 24.9155 38.5576 24.8226C38.6755 24.7297 38.7688 24.6368 38.8373 24.5439C38.9058 24.451 38.94 24.3775 38.94 24.3233C38.94 24.2149 38.9019 24.1607 38.8258 24.1607C38.7878 24.1607 38.7478 24.1762 38.706 24.2072C38.6641 24.2382 38.6165 24.2749 38.5633 24.3175C38.51 24.3601 38.451 24.3969 38.3863 24.4278C38.3216 24.4588 38.2474 24.4743 38.1637 24.4743C37.9886 24.4743 37.8688 24.391 37.8041 24.2246C37.7394 24.0582 37.707 23.793 37.707 23.4292V20.4913C37.707 20.3907 37.7527 20.3404 37.844 20.3404H38.7117C38.7802 20.3404 38.822 20.3288 38.8373 20.3056C38.8525 20.2823 38.8601 20.2397 38.8601 20.1778V19.9456C38.8601 19.8991 38.8525 19.8682 38.8373 19.8527C38.822 19.8372 38.7802 19.8295 38.7117 19.8295H37.8554C37.7565 19.8295 37.707 19.7791 37.707 19.6785V18.9702C37.707 18.885 37.7013 18.8173 37.6899 18.767C37.6785 18.7166 37.6461 18.6915 37.5929 18.6915C37.5244 18.6915 37.4463 18.7689 37.3588 18.9237C37.2713 19.0785 37.1362 19.2643 36.9535 19.4811C36.847 19.5972 36.7499 19.6901 36.6624 19.7598C36.5749 19.8295 36.4969 19.8875 36.4284 19.934C36.3599 19.9804 36.3066 20.023 36.2685 20.0617C36.2305 20.1004 36.2115 20.143 36.2115 20.1894C36.2115 20.2901 36.28 20.3404 36.417 20.3404H36.6225C36.6986 20.3404 36.7442 20.3733 36.7595 20.4391C36.7747 20.5049 36.7823 20.592 36.7823 20.7004L36.7366 23.1969V23.6846C36.7366 24.6678 37.0411 25.1594 37.6499 25.1594ZM13.407 33.8452C13.3271 33.8684 13.2186 33.88 13.0817 33.88C12.7924 33.88 12.6478 33.7407 12.6478 33.462C12.6478 33.2297 12.6802 33.0652 12.7449 32.9685C12.8096 32.8717 12.9485 32.8233 13.1616 32.8233H13.2072C13.3214 32.8233 13.4146 32.8059 13.4869 32.7711C13.5592 32.7362 13.6296 32.622 13.6981 32.4285L13.9379 31.755C13.9912 31.6157 14.0178 31.4957 14.0178 31.395C14.0178 31.3563 14.0045 31.2712 13.9778 31.1396C13.9512 31.008 13.9074 30.8415 13.8466 30.6403L12.9104 27.7256C12.8191 27.4392 12.7334 27.207 12.6535 27.0289C12.5736 26.8509 12.4842 26.727 12.3852 26.6573C12.332 26.6186 12.2787 26.5915 12.2254 26.576C12.1721 26.5606 12.1246 26.5451 12.0827 26.5296C12.0408 26.5141 12.0066 26.4948 11.98 26.4715C11.9533 26.4483 11.94 26.4096 11.94 26.3554C11.94 26.2935 11.9552 26.2548 11.9857 26.2393C12.0161 26.2238 12.0656 26.2161 12.1341 26.2161C12.195 26.2161 12.3129 26.2238 12.488 26.2393C12.663 26.2548 12.8952 26.2625 13.1844 26.2625C13.4736 26.2625 13.6943 26.2548 13.8466 26.2393C13.9988 26.2238 14.0901 26.2161 14.1206 26.2161C14.2119 26.2161 14.2576 26.2586 14.2576 26.3438C14.2576 26.4212 14.229 26.4735 14.1719 26.5006C14.1148 26.5277 14.0521 26.5509 13.9836 26.5702C13.9151 26.5896 13.8523 26.6109 13.7952 26.6341C13.7381 26.6573 13.7096 26.7038 13.7096 26.7734C13.7096 26.8199 13.7172 26.9051 13.7324 27.0289C13.7476 27.1528 13.7857 27.3037 13.8466 27.4818L14.4859 29.5487C14.5163 29.6416 14.5468 29.6881 14.5772 29.6881C14.6 29.6881 14.6305 29.6416 14.6685 29.5487L15.3649 27.5631C15.4182 27.4082 15.4563 27.265 15.4791 27.1334C15.5019 27.0018 15.5134 26.9205 15.5134 26.8896C15.5134 26.7812 15.4791 26.7076 15.4106 26.6689C15.3421 26.6302 15.2679 26.6012 15.188 26.5818C15.1081 26.5625 15.0358 26.5393 14.9711 26.5122C14.9064 26.4851 14.874 26.429 14.874 26.3438C14.874 26.2819 14.8836 26.2451 14.9026 26.2335C14.9216 26.2219 14.9578 26.2161 15.011 26.2161C15.0719 26.2161 15.1671 26.2219 15.2965 26.2335C15.4258 26.2451 15.5971 26.2509 15.8102 26.2509C15.9929 26.2509 16.1451 26.2451 16.2669 26.2335C16.3886 26.2219 16.48 26.2161 16.5408 26.2161C16.6017 26.2161 16.636 26.2238 16.6436 26.2393C16.6512 26.2548 16.655 26.2935 16.655 26.3554C16.655 26.4406 16.6303 26.489 16.5808 26.5006C16.5313 26.5122 16.4704 26.5296 16.3981 26.5528C16.3258 26.576 16.244 26.6264 16.1527 26.7038C16.0614 26.7812 15.9776 26.9283 15.9015 27.145L14.9654 29.6997C14.6077 30.6673 14.3432 31.4395 14.1719 32.0163C14.0007 32.593 13.8846 32.9743 13.8237 33.1601C13.7857 33.2994 13.7514 33.4136 13.721 33.5026C13.6905 33.5916 13.6506 33.6652 13.6011 33.7232C13.5516 33.7813 13.4869 33.8219 13.407 33.8452ZM18.7556 31.5576C19.0525 31.5576 19.3189 31.5073 19.5548 31.4066C19.7907 31.306 19.9943 31.188 20.1656 31.0525C20.3368 30.917 20.4681 30.7796 20.5595 30.6403C20.6508 30.5009 20.6965 30.3887 20.6965 30.3035C20.6965 30.2183 20.666 30.1758 20.6051 30.1758C20.5823 30.1758 20.5423 30.2106 20.4852 30.2803C20.4282 30.35 20.3482 30.4274 20.2455 30.5125C20.1428 30.5977 20.0134 30.6751 19.8573 30.7448C19.7013 30.8144 19.5167 30.8493 19.3036 30.8493C18.8241 30.8493 18.4341 30.6403 18.1334 30.2222C17.8328 29.8042 17.6825 29.2352 17.6825 28.5153V28.2366C17.6825 28.1591 17.6901 28.1088 17.7053 28.0856C17.7206 28.0624 17.7586 28.0508 17.8195 28.0508H20.3425C20.4795 28.0508 20.5785 28.0353 20.6394 28.0043C20.7003 27.9734 20.7307 27.9076 20.7307 27.8069C20.7307 27.5592 20.6869 27.327 20.5994 27.1102C20.5119 26.8934 20.3882 26.7038 20.2284 26.5412C20.0685 26.3786 19.8745 26.249 19.6461 26.1522C19.4178 26.0554 19.1666 26.0071 18.8926 26.0071C18.573 26.0071 18.2781 26.0729 18.0079 26.2045C17.7377 26.3361 17.5036 26.5219 17.3058 26.7618C17.1079 27.0018 16.9537 27.2941 16.8434 27.6385C16.733 27.983 16.6778 28.3682 16.6778 28.7939C16.6778 29.2197 16.7273 29.6029 16.8263 29.9435C16.9252 30.2841 17.066 30.5744 17.2487 30.8144C17.4313 31.0544 17.6502 31.2383 17.9051 31.366C18.1601 31.4937 18.4436 31.5576 18.7556 31.5576ZM17.9108 27.6908H18.6529C19.0258 27.6908 19.2979 27.6482 19.4692 27.5631C19.6404 27.4779 19.726 27.3076 19.726 27.0521C19.726 26.8586 19.648 26.6806 19.492 26.518C19.336 26.3554 19.1362 26.2741 18.8926 26.2741C18.6263 26.2741 18.3941 26.3786 18.1962 26.5877C17.9984 26.7967 17.869 27.0599 17.8081 27.3773L17.7738 27.5631V27.5863C17.7738 27.656 17.8195 27.6908 17.9108 27.6908ZM28.7793 31.546C29.1599 31.546 29.5024 31.4802 29.8068 31.3486C30.1112 31.217 30.3681 31.0312 30.5774 30.7912C30.7867 30.5512 30.9485 30.2609 31.0626 29.9203C31.1768 29.5797 31.2339 29.2042 31.2339 28.7939C31.2339 28.3759 31.1787 27.9966 31.0683 27.656C30.958 27.3153 30.8019 27.0231 30.6003 26.7793C30.3986 26.5354 30.1531 26.3457 29.8639 26.2103C29.5747 26.0748 29.255 26.0071 28.9049 26.0071C28.5396 26.0071 28.2085 26.0729 27.9117 26.2045C27.6148 26.3361 27.3599 26.5219 27.1468 26.7618C26.9337 27.0018 26.77 27.2921 26.6559 27.6327C26.5417 27.9734 26.4846 28.3527 26.4846 28.7707C26.4846 29.181 26.5398 29.5565 26.6502 29.8971C26.7605 30.2377 26.9165 30.5299 27.1182 30.7738C27.3199 31.0176 27.5616 31.2073 27.8432 31.3428C28.1248 31.4783 28.4368 31.546 28.7793 31.546ZM27.8831 30.5299C28.1381 30.9905 28.4711 31.2209 28.8821 31.2209C29.3007 31.2209 29.6299 31.0215 29.8696 30.6228C30.1093 30.2242 30.2292 29.6648 30.2292 28.9449C30.2292 28.1243 30.1017 27.4837 29.8468 27.0231C29.5918 26.5625 29.2626 26.3322 28.8592 26.3322C28.4254 26.3322 28.0905 26.5296 27.8546 26.9244C27.6186 27.3192 27.5007 27.8805 27.5007 28.6081C27.5007 29.4287 27.6282 30.0693 27.8831 30.5299ZM36.4855 31.2092L37.7869 27.505C37.8935 27.2186 37.9886 27.0018 38.0723 26.8547C38.1561 26.7076 38.2588 26.6147 38.3806 26.576C38.4871 26.5373 38.5747 26.518 38.6432 26.518C38.7117 26.518 38.7459 26.4638 38.7459 26.3554C38.7459 26.2935 38.7383 26.2548 38.7231 26.2393C38.7079 26.2238 38.6698 26.2161 38.6089 26.2161C38.5633 26.2161 38.4719 26.2238 38.3349 26.2393C38.1979 26.2548 38.0153 26.2625 37.7869 26.2625C37.5967 26.2625 37.4349 26.2548 37.3017 26.2393C37.1685 26.2238 37.0601 26.2161 36.9764 26.2161C36.9231 26.2161 36.8869 26.2257 36.8679 26.2451C36.8489 26.2645 36.8394 26.3051 36.8394 26.367C36.8394 26.4367 36.8755 26.4793 36.9478 26.4948C37.0201 26.5102 37.0981 26.5277 37.1819 26.547C37.2656 26.5664 37.3436 26.5973 37.4159 26.6399C37.4882 26.6825 37.5244 26.7618 37.5244 26.878C37.5244 26.9321 37.5148 27.0173 37.4958 27.1334C37.4768 27.2495 37.4368 27.3928 37.3759 27.5631L36.691 29.7229C36.6605 29.8081 36.6301 29.8506 36.5996 29.8506C36.5616 29.8506 36.5311 29.8235 36.5083 29.7693L35.6863 27.4818C35.6254 27.3115 35.5817 27.1663 35.555 27.0463C35.5284 26.9263 35.5151 26.8354 35.5151 26.7734C35.5151 26.6883 35.5512 26.6302 35.6235 26.5993C35.6958 26.5683 35.7738 26.5451 35.8575 26.5296C35.9413 26.5141 36.0193 26.4948 36.0916 26.4715C36.1639 26.4483 36.2 26.4057 36.2 26.3438C36.2 26.2509 36.1354 26.2045 36.006 26.2045C35.9451 26.2045 35.8366 26.2161 35.6806 26.2393C35.5246 26.2625 35.3172 26.2741 35.0584 26.2741H33.0605C32.6038 26.2741 32.2461 26.2645 31.9874 26.2451C31.7286 26.2257 31.5611 26.2161 31.485 26.2161C31.4241 26.2161 31.3861 26.2238 31.3709 26.2393C31.3556 26.2548 31.348 26.2935 31.348 26.3554C31.348 26.4173 31.3728 26.4599 31.4222 26.4831C31.4717 26.5064 31.5307 26.5354 31.5992 26.5702C31.6677 26.6051 31.7381 26.6554 31.8104 26.7212C31.8827 26.787 31.9455 26.8896 31.9988 27.0289L33.4943 31.1976C33.5248 31.2828 33.5514 31.3486 33.5743 31.395C33.5971 31.4415 33.6389 31.4647 33.6998 31.4647C33.7607 31.4647 33.8045 31.4434 33.8311 31.4008C33.8578 31.3583 33.8863 31.2944 33.9167 31.2092L35.0013 28.3759L36.063 31.1976C36.0935 31.2828 36.1182 31.3486 36.1373 31.395C36.1563 31.4415 36.2 31.4647 36.2685 31.4647C36.3523 31.4647 36.4246 31.3795 36.4855 31.2092ZM33.9852 29.7926C34.0081 29.8468 34.0309 29.8739 34.0537 29.8739C34.0766 29.8739 34.0994 29.839 34.1222 29.7694L34.6017 28.4224C34.6398 28.3062 34.6759 28.1979 34.7102 28.0972C34.7444 27.9966 34.7616 27.8921 34.7616 27.7837C34.7616 27.7527 34.7501 27.6966 34.7273 27.6153C34.7045 27.534 34.6759 27.445 34.6417 27.3482C34.6074 27.2515 34.5694 27.1566 34.5275 27.0637C34.4857 26.9709 34.4419 26.8934 34.3962 26.8315C34.244 26.6302 34.0043 26.5296 33.677 26.5296C33.4715 26.5296 33.3098 26.5644 33.1918 26.6341C33.0738 26.7038 33.0148 26.7967 33.0148 26.9128C33.0148 27.0444 33.0377 27.1721 33.0833 27.296L33.9852 29.7926Z"
        fill="white" />
</svg>