<svg width="50" height="50" viewBox="0 0 50 50" fill="none" xmlns="http://www.w3.org/2000/svg">
    <rect width="50" height="50" rx="15" fill="#FB7E66" />
    <path
        d="M25.0245 27.082C28.7782 27.082 32 23.695 32 19.5674C32 15.4225 28.872 12 25.0245 12C21.1769 12 18 15.4225 18 19.5674C18 21.4183 18.6315 23.0953 19.6741 24.3926C19.8212 24.2874 20.7209 23.3987 22.2881 22.8264C21.4657 22.0195 20.9371 20.8646 20.9371 19.5674C20.9371 17.1626 22.7923 15.2168 25.0245 15.2168C27.2567 15.2168 29.0629 17.1626 29.0629 19.5674C29.0629 21.922 27.3086 23.918 25.0245 23.918C21.3579 23.918 18 27.2116 18 31.4326C18 35.5775 21.1769 39 25.0245 39C28.872 39 32 35.5775 32 31.4326C32 29.5816 31.3685 27.9046 30.3259 26.6074C30.1788 26.7126 29.2791 27.6012 27.7119 28.1736C28.5343 28.9805 29.0629 30.1354 29.0629 31.4326C29.0629 33.8373 27.2567 35.8359 25.0245 35.8359C22.7923 35.8359 20.9371 33.8373 20.9371 31.4326C20.9371 29.078 22.7404 27.082 25.0245 27.082Z"
        fill="white" />
</svg>