<svg width="50" height="50" viewBox="0 0 50 50" fill="none" xmlns="http://www.w3.org/2000/svg">
    <rect width="50" height="50" rx="15" fill="#60DCAD" />
    <path fill-rule="evenodd" clip-rule="evenodd"
        d="M21.6746 31.0654C22.9326 31.0654 24.0534 30.6376 24.9322 29.898L25.283 30.7H28.0358V16H24.3582V20.2958C23.5842 19.815 22.6718 19.546 21.6746 19.546C18.3606 19.546 16 21.9436 16 25.3C16 28.6564 18.3606 31.0654 21.6746 31.0654ZM22.1722 27.7716C20.7788 27.7716 19.7546 26.7104 19.7546 25.3002C19.7546 23.8898 20.7788 22.8286 22.1722 22.8286C23.5656 22.8286 24.5898 23.8898 24.5898 25.3002C24.5898 26.7104 23.5656 27.7716 22.1722 27.7716ZM33.84 31.2442V34.7H30.2314V31.2442H33.84ZM33.84 29.1558V25.7H30.2314V29.1558H33.84ZM33.84 20.7V24.1558H30.2314V20.7H33.84Z"
        fill="white" />
</svg>