<svg width="50" height="50" viewBox="0 0 50 50" fill="none" xmlns="http://www.w3.org/2000/svg">
    <rect width="50" height="50" rx="15" fill="#E66D39" />
    <path fill-rule="evenodd" clip-rule="evenodd"
        d="M31.3392 24.4767L31.4079 20.8459L34.9807 20.1909L30.859 16.0285L26.9163 20.0101L23.6765 16.7383L16 17.34L22.8832 24.2912L22.1039 34.9896L31.9266 25.0698L31.3392 24.4767ZM31.4167 19.6994V18.1848L32.6861 19.4667L31.4167 19.6994ZM30.2445 23.3711L30.3012 18.1848L27.7051 20.8066L30.2445 23.3711ZM23.925 25.3434L27.0016 28.4504L23.4364 32.0508L23.925 25.3434ZM18.5021 18.2738L27.7903 27.6538L30.3491 25.0698L23.2509 17.9015L18.5021 18.2738Z"
        fill="white" />
</svg>