<svg width="50" height="50" viewBox="0 0 50 50" fill="none" xmlns="http://www.w3.org/2000/svg">
    <rect width="50" height="50" rx="15" fill="#007CFF" />
    <path
        d="M21.7725 23.1113L12 25.5L21.7725 27.8887C21.3289 27.1989 21.0703 26.3793 21.0703 25.5C21.0703 24.6207 21.3289 23.8011 21.7725 23.1113Z"
        fill="white" />
    <path
        d="M25.5 22.6523C23.9298 22.6523 22.6523 23.9298 22.6523 25.5C22.6523 27.0702 23.9298 28.3477 25.5 28.3477C27.0702 28.3477 28.3477 27.0702 28.3477 25.5C28.3477 23.9298 27.0702 22.6523 25.5 22.6523Z"
        fill="white" />
    <path
        d="M25.5 29.9297C24.6207 29.9297 23.8011 29.6711 23.1113 29.2275L25.5 39L27.6154 30.3455L27.8887 29.2275C27.1989 29.6711 26.3793 29.9297 25.5 29.9297Z"
        fill="white" />
    <path
        d="M29.2275 23.1113C29.6711 23.8011 29.9297 24.6207 29.9297 25.5C29.9297 26.3793 29.6711 27.1989 29.2275 27.8887L30.3255 27.6203L39 25.5L29.2275 23.1113Z"
        fill="white" />
    <path
        d="M25.5 12L23.1113 21.7725C23.8011 21.3289 24.6207 21.0703 25.5 21.0703C26.3793 21.0703 27.1989 21.3289 27.8887 21.7725L25.5 12Z"
        fill="white" />
    <path d="M29.0446 19.8385L29.4604 21.5396L31.1996 21.9647L34.4044 16.7022L29.0446 19.8385Z" fill="white" />
    <path d="M21.5396 29.4604L19.8063 29.0367L16.59 34.3181L21.959 31.1764L21.5396 29.4604Z" fill="white" />
    <path d="M31.1888 29.0379L29.4604 29.4604L29.0402 31.1792L34.4044 34.3181L31.1888 29.0379Z" fill="white" />
    <path d="M16.59 16.7022L19.7955 21.966L21.5396 21.5396L21.9547 19.8413L16.59 16.7022Z" fill="white" />
</svg>